<svg width="130" height="130" viewBox="0 0 130 130" fill="none" xmlns="http://www.w3.org/2000/svg">
<g clip-path="url(#clip0_36963_15314)">
<path d="M65 130C100.899 130 130 100.899 130 65C130 29.1015 100.899 0 65 0C29.1015 0 0 29.1015 0 65C0 100.899 29.1015 130 65 130Z" fill="url(#paint0_linear_36963_15314)"/>
<path d="M65 37.7C72.2404 37.7 79.1842 40.5762 84.304 45.6959C89.4237 50.8157 92.2999 57.7595 92.2999 65C92.2999 72.2404 89.4237 79.1842 84.304 84.304C79.1842 89.4237 72.2404 92.2999 65 92.2999C57.7595 92.2999 50.8157 89.4237 45.6959 84.304C40.5762 79.1842 37.7 72.2404 37.7 65C37.7 57.7595 40.5762 50.8157 45.6959 45.6959C50.8157 40.5762 57.7595 37.7 65 37.7ZM65 49.4C64.5048 49.3995 64.015 49.5023 63.5618 49.7019C63.1087 49.9014 62.7021 50.1933 62.3681 50.5589C62.0342 50.9244 61.7801 51.3556 61.6222 51.8249C61.4642 52.2942 61.4059 52.7913 61.451 53.2843L62.8744 68.9077C62.9296 69.433 63.1774 69.9192 63.5699 70.2727C63.9623 70.6261 64.4718 70.8216 65 70.8216C65.5281 70.8216 66.0376 70.6261 66.43 70.2727C66.8225 69.9192 67.0703 69.433 67.1255 68.9077L68.5451 53.2843C68.5901 52.7916 68.5318 52.2948 68.3742 51.8258C68.2165 51.3568 67.9627 50.9258 67.6292 50.5603C67.2956 50.1948 66.8895 49.9029 66.4368 49.7031C65.9841 49.5033 65.4948 49.4001 65 49.4ZM65 80.5999C65.8274 80.5999 66.621 80.2712 67.2061 79.6861C67.7912 79.101 68.12 78.3074 68.12 77.4799C68.12 76.6525 67.7912 75.8589 67.2061 75.2738C66.621 74.6887 65.8274 74.3599 65 74.3599C64.1725 74.3599 63.3789 74.6887 62.7938 75.2738C62.2087 75.8589 61.8799 76.6525 61.8799 77.4799C61.8799 78.3074 62.2087 79.101 62.7938 79.6861C63.3789 80.2712 64.1725 80.5999 65 80.5999Z" fill="white"/>
</g>
<defs>
<linearGradient id="paint0_linear_36963_15314" x1="81.5718" y1="130" x2="-9.50974" y2="122.955" gradientUnits="userSpaceOnUse">
<stop stop-color="#FD8038"/>
<stop offset="1" stop-color="#B11E95"/>
</linearGradient>
<clipPath id="clip0_36963_15314">
<rect width="130" height="130" fill="white"/>
</clipPath>
</defs>
</svg>
