<svg width="363" height="94" viewBox="0 0 363 94" fill="none" xmlns="http://www.w3.org/2000/svg">
<path d="M77.701 28.6865H74.201V25.1865H70.701V21.6865H67.201H63.701V25.1865H60.201V28.6865H56.701H53.201V25.1865V21.6865V18.1865V14.6865V11.1865V7.68652V4.18652V0.686523H56.701H60.201V4.18652V7.68652V11.1865V14.6865H63.701V11.1865H67.201H70.701V14.6865H74.201V11.1865V7.68652V4.18652V0.686523H77.701H81.201V4.18652V7.68652V11.1865V14.6865V18.1865V21.6865V25.1865V28.6865H77.701ZM101.081 28.6865H97.5811H94.0811H90.5811H87.0811V25.1865H83.5811V21.6865V18.1865V14.6865V11.1865V7.68652H87.0811V4.18652H90.5811H94.0811H97.5811H101.081V7.68652H104.581V11.1865V14.6865V18.1865H101.081H97.5811H94.0811H90.5811V21.6865H94.0811H97.5811H101.081H104.581V25.1865V28.6865H101.081ZM94.0811 14.6865H97.5811V11.1865H94.0811H90.5811V14.6865H94.0811ZM124.461 28.6865H120.961H117.461H113.961H110.461H106.961V25.1865V21.6865H110.461H113.961V18.1865V14.6865V11.1865V7.68652H110.461H106.961V4.18652V0.686523H110.461H113.961H117.461H120.961V4.18652V7.68652V11.1865V14.6865V18.1865V21.6865H124.461H127.961V25.1865V28.6865H124.461ZM147.841 28.6865H144.341H140.841H137.341H133.841V25.1865H130.341V21.6865V18.1865V14.6865V11.1865V7.68652H133.841V4.18652H137.341H140.841H144.341H147.841H151.341V7.68652V11.1865H147.841H144.341H140.841H137.341V14.6865V18.1865V21.6865H140.841H144.341H147.841H151.341V25.1865V28.6865H147.841ZM167.721 28.6865H164.221H160.721H157.221V25.1865H153.721V21.6865V18.1865V14.6865V11.1865V7.68652H157.221V4.18652H160.721H164.221H167.721H171.221V7.68652H174.721V11.1865V14.6865V18.1865V21.6865V25.1865H171.221V28.6865H167.721ZM164.221 21.6865H167.721V18.1865V14.6865V11.1865H164.221H160.721V14.6865V18.1865V21.6865H164.221ZM201.601 28.6865H198.101V25.1865V21.6865V18.1865V14.6865V11.1865H194.601V14.6865V18.1865V21.6865V25.1865V28.6865H191.101H187.601V25.1865V21.6865V18.1865V14.6865V11.1865H184.101V14.6865V18.1865V21.6865V25.1865V28.6865H180.601H177.101V25.1865V21.6865V18.1865V14.6865V11.1865V7.68652H180.601V4.18652H184.101H187.601H191.101H194.601H198.101H201.601V7.68652H205.101V11.1865V14.6865V18.1865V21.6865V25.1865V28.6865H201.601ZM224.981 28.6865H221.481H217.981H214.481H210.981V25.1865H207.481V21.6865V18.1865V14.6865V11.1865V7.68652H210.981V4.18652H214.481H217.981H221.481H224.981V7.68652H228.481V11.1865V14.6865V18.1865H224.981H221.481H217.981H214.481V21.6865H217.981H221.481H224.981H228.481V25.1865V28.6865H224.981ZM217.981 14.6865H221.481V11.1865H217.981H214.481V14.6865H217.981ZM264.741 28.6865H261.241H257.741H254.241V25.1865H250.741V21.6865V18.1865V14.6865H247.241V11.1865V7.68652H250.741V4.18652V0.686523H254.241H257.741V4.18652V7.68652H261.241H264.741H268.241V11.1865V14.6865H264.741H261.241H257.741V18.1865V21.6865H261.241H264.741H268.241V25.1865V28.6865H264.741ZM284.621 28.6865H281.121H277.621H274.121V25.1865H270.621V21.6865V18.1865V14.6865V11.1865V7.68652H274.121V4.18652H277.621H281.121H284.621H288.121V7.68652H291.621V11.1865V14.6865V18.1865V21.6865V25.1865H288.121V28.6865H284.621ZM281.121 21.6865H284.621V18.1865V14.6865V11.1865H281.121H277.621V14.6865V18.1865V21.6865H281.121ZM21.001 82.6865H17.501H14.001H10.501H7.00104H3.50104V79.1865H0.0010376V75.6865V72.1865V68.6865V65.1865V61.6865V58.1865H3.50104V54.6865H7.00104H10.501H14.001H17.501H21.001H24.501H28.001V58.1865V61.6865H24.501H21.001H17.501H14.001H10.501H7.00104V65.1865V68.6865V72.1865V75.6865H10.501H14.001H17.501H21.001V72.1865H17.501H14.001V68.6865V65.1865H17.501H21.001H24.501H28.001V68.6865V72.1865V75.6865V79.1865H24.501V82.6865H21.001ZM47.881 82.6865H44.381H40.881H37.381H33.881H30.381V79.1865V75.6865H33.881H37.381V72.1865V68.6865V65.1865V61.6865H33.881H30.381V58.1865V54.6865H33.881H37.381H40.881H44.381V58.1865V61.6865V65.1865V68.6865V72.1865V75.6865H47.881H51.381V79.1865V82.6865H47.881ZM67.761 82.6865H64.261H60.761H57.261V79.1865H53.761V75.6865V72.1865V68.6865V65.1865V61.6865H57.261V58.1865H60.761H64.261H67.761H71.261V61.6865H74.761V65.1865V68.6865V72.1865V75.6865V79.1865H71.261V82.6865H67.761ZM64.261 75.6865H67.761V72.1865V68.6865V65.1865H64.261H60.761V68.6865V72.1865V75.6865H64.261ZM91.141 82.6865H87.641H84.141H80.641H77.141V79.1865V75.6865V72.1865V68.6865V65.1865V61.6865V58.1865V54.6865H80.641H84.141V58.1865V61.6865H87.641H91.141H94.641V65.1865H98.141V68.6865V72.1865V75.6865V79.1865H94.641V82.6865H91.141ZM87.641 75.6865H91.141V72.1865V68.6865H87.641H84.141V72.1865V75.6865H87.641ZM118.021 82.6865H114.521H111.021H107.521H104.021V79.1865H100.521V75.6865V72.1865V68.6865H104.021H107.521H111.021H114.521V65.1865H111.021H107.521H104.021H100.521V61.6865V58.1865H104.021H107.521H111.021H114.521H118.021V61.6865H121.521V65.1865V68.6865V72.1865V75.6865V79.1865V82.6865H118.021ZM111.021 75.6865H114.521V72.1865H111.021H107.521V75.6865H111.021ZM141.401 82.6865H137.901H134.401H130.901H127.401H123.901V79.1865V75.6865H127.401H130.901V72.1865V68.6865V65.1865V61.6865H127.401H123.901V58.1865V54.6865H127.401H130.901H134.401H137.901V58.1865V61.6865V65.1865V68.6865V72.1865V75.6865H141.401H144.901V79.1865V82.6865H141.401ZM168.281 82.6865H164.781H161.281H157.781H154.281H150.781V79.1865H147.281V75.6865V72.1865V68.6865V65.1865V61.6865V58.1865H150.781V54.6865H154.281H157.781H161.281H164.781H168.281H171.781V58.1865H175.281V61.6865V65.1865V68.6865V72.1865V75.6865V79.1865H171.781V82.6865H168.281ZM164.781 75.6865H168.281V72.1865H164.781H161.281H157.781H154.281V75.6865H157.781H161.281H164.781ZM164.781 65.1865H168.281V61.6865H164.781H161.281H157.781H154.281V65.1865H157.781H161.281H164.781ZM215.041 82.6865H211.541H208.041H204.541H201.041H197.541H194.041V79.1865V75.6865H197.541H201.041H204.541H208.041H211.541H215.041V72.1865H211.541H208.041H204.541H201.041H197.541V68.6865H194.041V65.1865V61.6865V58.1865H197.541V54.6865H201.041H204.541H208.041H211.541H215.041H218.541H222.041V58.1865V61.6865H218.541H215.041H211.541H208.041H204.541H201.041V65.1865H204.541H208.041H211.541H215.041H218.541V68.6865H222.041V72.1865V75.6865V79.1865H218.541V82.6865H215.041ZM241.921 82.6865H238.421V79.1865H234.921V75.6865H231.421V79.1865V82.6865H227.921H224.421V79.1865V75.6865V72.1865V68.6865V65.1865V61.6865V58.1865V54.6865H227.921H231.421V58.1865V61.6865V65.1865H234.921V61.6865H238.421V58.1865H241.921H245.421V61.6865V65.1865H241.921V68.6865H238.421V72.1865H241.921V75.6865H245.421V79.1865V82.6865H241.921ZM265.301 82.6865H261.801H258.301H254.801H251.301V79.1865H247.801V75.6865V72.1865V68.6865H251.301H254.801H258.301H261.801V65.1865H258.301H254.801H251.301H247.801V61.6865V58.1865H251.301H254.801H258.301H261.801H265.301V61.6865H268.801V65.1865V68.6865V72.1865V75.6865V79.1865V82.6865H265.301ZM258.301 75.6865H261.801V72.1865H258.301H254.801V75.6865H258.301ZM288.681 82.6865H285.181H281.681H278.181V79.1865H274.681V75.6865V72.1865V68.6865H271.181V65.1865V61.6865H274.681V58.1865V54.6865H278.181H281.681V58.1865V61.6865H285.181H288.681H292.181V65.1865V68.6865H288.681H285.181H281.681V72.1865V75.6865H285.181H288.681H292.181V79.1865V82.6865H288.681ZM312.061 82.6865H308.561H305.061H301.561H298.061H294.561V79.1865V75.6865H298.061H301.561V72.1865V68.6865H298.061V65.1865V61.6865H301.561H305.061H308.561V65.1865V68.6865V72.1865V75.6865H312.061H315.561V79.1865V82.6865H312.061ZM305.061 58.1865H301.561V54.6865V51.1865H305.061H308.561V54.6865V58.1865H305.061ZM335.441 82.6865H331.941V79.1865V75.6865V72.1865V68.6865V65.1865H328.441H324.941V68.6865V72.1865V75.6865V79.1865V82.6865H321.441H317.941V79.1865V75.6865V72.1865V68.6865V65.1865V61.6865V58.1865H321.441H324.941H328.441H331.941H335.441V61.6865H338.941V65.1865V68.6865V72.1865V75.6865V79.1865V82.6865H335.441ZM355.321 93.1865H351.821H348.321H344.821V89.6865V86.1865H348.321H351.821H355.321V82.6865H351.821H348.321H344.821V79.1865H341.321V75.6865V72.1865V68.6865V65.1865V61.6865H344.821V58.1865H348.321H351.821H355.321H358.821V61.6865H362.321V65.1865V68.6865V72.1865V75.6865V79.1865V82.6865V86.1865V89.6865H358.821V93.1865H355.321ZM351.821 75.6865H355.321V72.1865V68.6865V65.1865H351.821H348.321V68.6865V72.1865V75.6865H351.821Z" fill="white"/>
</svg>
